# xmcd
#
# Track frame offsets:
#	150
#	14257
#	26800
#	41335
#	53487
#	66442
#	78025
#	94337
#	108827
#	120697
#	132450
#	141827
#	155025
#	167857
#	181137
#	191965
#	205015
#	216197
#	227700
#
# Disc length: 3187 seconds
#
# Revision: 1
# Processed by: cddbd v1.5.2PL0 Copyright (c) Steve Scherf et al.
# Submitted via: audiograbber 1.83.01
#
DISCID=0b0c7113
DTITLE=Various Artist - Ein Bierlied für Österreich
DYEAR=2006
DGENRE=Schunkellieder
TTITLE0=Die Stoakogler - Hopfen und Malz
TTITLE1=Die Freiberger - Heute trinken wir auf unser Bier
TTITLE2=Ennstaler Spatzen - Wo bleibt nur mein Bier
TTITLE3=Kern Buam - Unser Bier
TTITLE4=Die Stohli's - Cool Polka
TTITLE5=Die Sulmtaler mit ihrem Herrn Karl - Bierjodler
TTITLE6=Die Kreuzbichler - Bier, Bier, Bier
TTITLE7=Die Mürztaler - A Glaserl Bier is doch koa Sünd'
TTITLE8=Schorschi und die Ringelreiher feat. Chris White - Bier, Bier
TTITLE9=Die Kreischbergianer - Schurlis Bierwalzer
TTITLE10=Die Wiesentaler - Ein kühles Blondes
TTITLE11=Voice Factory - I brauch mei Bier
TTITLE12=Karl Kanitsch - Heut' wird's wieder Bierig
TTITLE13=Die Edlseer - Prost heisst Tschias und Jamas
TTITLE14=Vinko Simek - Ze Kruzefix
TTITLE15=Die Heilbrunner - Oh du mein Bier
TTITLE16=Die Original fiedelen Lavanttaler - A Bier muss her
TTITLE17=Blumi - Mass halten, Bier trinken
TTITLE18=Die Wörtherseer - Heja-heja
EXTD=
EXTT0=
EXTT1=
EXTT2=
EXTT3=
EXTT4=
EXTT5=
EXTT6=
EXTT7=
EXTT8=
EXTT9=
EXTT10=
EXTT11=
EXTT12=
EXTT13=
EXTT14=
EXTT15=
EXTT16=
EXTT17=
EXTT18=
PLAYORDER=
